<svg width="2775" height="895" xmlns="http://www.w3.org/2000/svg" xmlns:xlink="http://www.w3.org/1999/xlink" xml:space="preserve" overflow="hidden"><g transform="translate(-24 23)"><path d="M50.1942 542.771 42.1626 282.057 323.303 202.498 331.335 463.212Z" stroke="#172C51" stroke-width="4.58333" stroke-miterlimit="8" fill="#E7E6E6" fill-rule="evenodd"/><text font-family="Calibri,Calibri_MSFontService,sans-serif" font-weight="400" font-size="46" transform="matrix(0.96262 -0.270855 0.270855 0.96262 701.834 261)">Descriptor map</text><path d="M716.185 551.823 708.154 291.109 989.294 211.551 997.326 472.264Z" stroke="#172C51" stroke-width="4.58333" stroke-miterlimit="8" fill="#E7E6E6" fill-rule="evenodd"/><text font-family="Calibri,Calibri_MSFontService,sans-serif" font-weight="400" font-size="46" transform="matrix(0.957938 -0.286974 0.286974 0.957938 99.7349 237)">Image</text><path d="M897.5 459C897.5 454.306 901.082 450.5 905.5 450.5 909.918 450.5 913.5 454.306 913.5 459 913.5 463.694 909.918 467.5 905.5 467.5 901.082 467.5 897.5 463.694 897.5 459Z" stroke="#172C51" stroke-width="4.58333" stroke-miterlimit="8" fill="#ED7D31" fill-rule="evenodd"/><path d="M917.5 383C917.5 378.305 921.306 374.5 926 374.5 930.695 374.5 934.5 378.305 934.5 383 934.5 387.694 930.695 391.5 926 391.5 921.306 391.5 917.5 387.694 917.5 383Z" stroke="#172C51" stroke-width="4.58333" stroke-miterlimit="8" fill="#ED7D31" fill-rule="evenodd"/><path d="M791.121 454.468C789.965 450.061 792.601 445.551 797.008 444.395 801.415 443.239 805.925 445.874 807.081 450.281 808.237 454.688 805.602 459.198 801.195 460.355 796.787 461.511 792.278 458.875 791.121 454.468Z" stroke="#172C51" stroke-width="4.58333" stroke-miterlimit="8" fill="#ED7D31" fill-rule="evenodd"/><path d="M859.768 318.356C859.462 313.81 862.899 309.877 867.445 309.571 871.991 309.265 875.924 312.703 876.23 317.249 876.536 321.795 873.099 325.728 868.553 326.034 864.007 326.339 860.074 322.902 859.768 318.356Z" stroke="#172C51" stroke-width="4.58333" stroke-miterlimit="8" fill="#ED7D31" fill-rule="evenodd"/><path d="M0 0 59.3072 121.237" stroke="#548235" stroke-width="4.58333" stroke-miterlimit="8" fill="none" fill-rule="evenodd" transform="matrix(-1 0 0 1 862.807 324.5)"/><path d="M407.5 278.5 542 278.5 629.5 366 542 453.5 407.5 453.5Z" stroke="#172C51" stroke-width="4.58333" stroke-miterlimit="8" fill="#DAE3F3" fill-rule="evenodd"/><text font-family="Calibri,Calibri_MSFontService,sans-serif" font-weight="400" font-size="46" transform="matrix(1 0 0 1 453.961 381)">CNN</text><path d="M374.347 538.5 626.653 538.5C659.705 538.5 686.5 562.901 686.5 593 686.5 623.1 659.705 647.5 626.653 647.5L374.347 647.5C341.295 647.5 314.5 623.1 314.5 593 314.5 562.901 341.295 538.5 374.347 538.5Z" stroke="#172C51" stroke-width="4.58333" stroke-miterlimit="8" fill="#DAE3F3" fill-rule="evenodd"/><text font-family="Calibri,Calibri_MSFontService,sans-serif" font-weight="400" font-size="46" transform="matrix(1 0 0 1 374.19 608)">Line Detector</text><path d="M330.5 364.208 379.551 364.209 379.551 368.792 330.5 368.792ZM374.967 352.75 402.467 366.5 374.967 380.25Z" fill="#4472C4"/><path d="M634.5 364.208 683.551 364.209 683.551 368.792 634.5 368.792ZM678.967 352.75 706.467 366.5 678.967 380.25Z" fill="#C55A11"/><path d="M0.0805202-2.29025 10.058-1.93947 20.0315-0.909307 29.8432 0.751706 39.4176 2.9986 48.6793 5.78706 57.553 9.07345 65.9637 12.815 73.8361 16.9698 81.0953 21.4975 87.6659 26.3596 93.4717 31.5201 98.4343 36.9461 102.471 42.6079 105.489 48.4765 107.384 54.5162 108.015 60.4221 108.621 66.1021 108.529 65.6594 110.297 71.2949 110.149 70.9329 113.001 76.4796 112.829 76.1974 116.689 81.6108 116.514 81.3944 121.302 86.6301 121.134 86.4639 126.774 91.4774 126.615 91.3481 133.03 96.0949 132.879 95.9927 139.991 100.429 139.848 100.346 147.579 104.427 147.441 104.36 155.715 108.04 155.579 107.985 164.317 111.221 164.182 111.176 173.308 113.923 173.17 113.886 182.606 116.101 182.353 116.056 188.934 116.841 188.391 121.392 181.683 120.592 172.054 118.332 162.792 115.544 153.919 112.257 145.508 108.516 137.636 104.361 130.376 99.8334 123.806 94.9713 118 89.8108 113.037 84.3849 109.001 78.7231 105.983 72.8544 104.088 66.8148 103.457 60.9088 102.851 55.2289 102.943 55.6716 101.174 50.036 101.323 50.398 98.4705 44.8513 98.6424 45.1336 94.7832 39.7202 94.9582 39.9365 90.1696 34.7009 90.3382 34.8671 84.6977 29.8536 84.857 29.9829 78.4421 25.236 78.5925 25.3383 71.4806 20.9024 71.6238 20.9847 63.8924 16.9043 64.0305 16.9714 55.757 13.2909 55.8926 13.3461 47.1544 10.1099 47.2896 10.1552 38.1642 7.40781 38.3013 7.44449 28.8661 5.23026 29.0072 5.25873 19.3397 3.62212 19.4868 3.64214 9.66438 2.6276 9.81931 2.63831-0.0805202 2.29025ZM185.429 104.988 211.472 121.331 182.772 132.359Z" fill="#4472C4" transform="matrix(1 0 0 -1 849.5 354.831)"/><path d="M1060.5 170.001C1060.5 152.603 1074.6 138.5 1092 138.5L1318 138.5C1335.4 138.5 1349.5 152.603 1349.5 170.001L1349.5 296C1349.5 313.397 1335.4 327.5 1318 327.5L1092 327.5C1074.6 327.5 1060.5 313.397 1060.5 296Z" stroke="#172C51" stroke-width="4.58333" stroke-miterlimit="8" fill="none" fill-rule="evenodd"/><text fill="#548235" font-family="Calibri,Calibri_MSFontService,sans-serif" font-weight="400" font-size="46" transform="matrix(1 0 0 1 1168.87 193)">Line</text><text font-family="Calibri,Calibri_MSFontService,sans-serif" font-weight="400" font-size="46" transform="matrix(1 0 0 1 1091.53 248)">Transformer </text><text font-family="Calibri,Calibri_MSFontService,sans-serif" font-weight="400" font-size="46" transform="matrix(1 0 0 1 1130.78 303)">Encoder </text><path d="M934.669 380.215 942.273 380.777 949.959 382.449 957.492 385.134 964.815 388.752 971.873 393.225 978.612 398.48 984.98 404.444 990.921 411.045 996.381 418.215 1001.3 425.883 1005.63 433.981 1009.31 442.442 1012.27 451.195 1014.46 460.174 1015.82 469.309 1016.29 478.411 1016.74 487.402 1016.72 487.18 1018.05 496.101 1018.01 495.895 1020.15 504.674 1020.1 504.483 1023 513.052 1022.93 512.874 1026.53 521.161 1026.45 520.994 1030.69 528.93 1030.6 528.772 1035.42 536.286 1035.32 536.136 1040.66 543.157 1040.54 543.013 1046.36 549.471 1046.22 549.332 1052.44 555.158 1052.28 555.023 1058.85 560.146 1058.67 560.017 1065.53 564.366 1065.06 564.137 1072.08 566.579 1070.57 570.908 1063.3 568.379 1056.12 563.829 1049.38 558.574 1043.02 552.61 1037.07 546.009 1031.61 538.839 1026.69 531.171 1022.36 523.073 1018.69 514.612 1015.73 505.859 1013.53 496.88 1012.17 487.745 1011.71 478.643 1011.25 469.652 1011.27 469.874 1009.95 460.954 1009.99 461.16 1007.84 452.38 1007.9 452.571 1005 444.002 1005.06 444.18 1001.46 435.893 1001.54 436.06 997.304 428.124 997.396 428.282 992.573 420.768 992.679 420.918 987.331 413.897 987.451 414.042 981.638 407.583 981.775 407.722 975.555 401.896 975.712 402.031 969.142 396.909 969.325 397.037 962.464 392.688 962.676 392.807 955.582 389.302 955.827 389.406 948.559 386.816 948.841 386.896 941.456 385.29 941.774 385.336 934.331 384.785ZM1070.38 554.28 1093.49 574.554 1063.41 580.882Z" fill="#4472C4"/><path d="M1892.5 304.647 1892.28 308.074 1891.61 311.6 1890.55 315.049 1889.09 318.444 1885.26 324.686 1880.28 330.294 1874.4 335.027 1867.82 338.686 1860.79 341.037 1857.07 341.675 1853.49 341.884 1850.04 342.085 1850.29 342.056 1846.87 342.643 1847.21 342.558 1840.55 344.786 1840.94 344.615 1834.71 348.077 1835.33 347.57 1828.38 355.64 1824.91 352.649 1832.13 344.269 1838.9 340.506 1845.92 338.156 1849.64 337.517 1853.22 337.309 1856.67 337.107 1856.42 337.136 1859.84 336.549 1859.5 336.635 1866.16 334.407 1865.78 334.577 1872 331.116 1871.68 331.333 1877.26 326.843 1876.98 327.108 1881.7 321.795 1881.46 322.118 1885.09 316.189 1884.94 316.483 1886.29 313.351 1886.2 313.577 1887.2 310.368 1887.13 310.621 1887.75 307.36 1887.72 307.639 1887.93 304.353ZM1841 356.122 1816.5 374.693 1816.35 343.947Z" fill="#4472C4"/><path d="M1565.21 557.904 1565.75 549.199 1567.32 540.44 1569.86 531.839 1573.29 523.461 1577.54 515.373 1582.53 507.638 1588.21 500.32 1594.5 493.485 1601.34 487.198 1608.66 481.524 1616.4 476.531 1624.57 472.245 1635.88 468.619 1637.28 472.983 1626.16 476.549 1626.52 476.396 1618.62 480.542 1618.8 480.439 1611.23 485.322 1611.39 485.208 1604.22 490.762 1604.37 490.637 1597.67 496.794 1597.81 496.659 1591.65 503.353 1591.77 503.206 1586.22 510.369 1586.33 510.207 1581.44 517.773 1581.55 517.595 1577.4 525.495 1577.49 525.298 1574.15 533.467 1574.23 533.248 1571.76 541.618 1571.81 541.375 1570.28 549.879 1570.31 549.613 1569.79 558.184ZM1629.5 458.155 1659.09 466.5 1634.66 485.167Z" fill="#4472C4"/><path d="M0.603839-2.21068 3.18483-1.50569 5.88087 0.657791 8.22639 3.74269 10.3844 7.67726 12.4156 12.4284 14.3345 17.9495 16.1381 24.183 17.8164 31.0644 19.3562 38.526 20.7428 46.4976 21.9607 54.9082 22.9958 63.7004 24.4425 82.0535 24.9531 100.955 25.1884 110.417 25.183 110.307 25.8686 119.691 25.8584 119.586 26.9643 128.822 26.9497 128.719 28.4459 137.733 28.4266 137.631 30.2831 146.349 30.2585 146.246 32.4453 154.594 32.4145 154.487 34.9015 162.391 34.8625 162.278 37.6197 169.664 37.5695 169.54 40.5669 176.335 40.5006 176.197 43.7082 182.326 43.2608 181.731 47.5398 185.818 44.374 189.133 39.8223 184.785 36.4044 178.255 33.3491 171.329 30.5475 163.824 28.0257 155.809 25.8113 147.356 23.9329 138.535 22.4197 129.418 21.3013 120.078 20.6079 110.586 20.3714 101.078 19.8624 82.2365 19.8687 82.3546 18.4301 64.1046 18.4388 64.1924 17.4124 55.4743 17.4204 55.5348 16.2114 47.1867 16.2217 47.251 14.8468 39.3467 14.8602 39.4172 13.3359 32.0308 13.3539 32.1106 11.6968 25.3162 11.7218 25.4102 9.94856 19.2816 9.98528 19.397 8.11243 14.0083 8.16991 14.1568 6.21408 9.58196 6.31196 9.78315 4.28974 6.09614 4.47477 6.38112 2.40276 3.65595 2.79273 4.05626 0.687521 2.3669 1.51796 2.79024-0.603839 2.21068ZM51.1515 173.945 63.656 202.033 33.6827 195.184Z" fill="#4472C4" transform="matrix(1 0 0 -1 1595.5 668.533)"/><path d="M1515.5 174.167C1515.5 157.23 1529.23 143.5 1546.17 143.5L1777.83 143.5C1794.77 143.5 1808.5 157.23 1808.5 174.167L1808.5 296.833C1808.5 313.77 1794.77 327.5 1777.83 327.5L1546.17 327.5C1529.23 327.5 1515.5 313.77 1515.5 296.833Z" stroke="#172C51" stroke-width="4.58333" stroke-miterlimit="8" fill="none" fill-rule="evenodd"/><text fill="#548235" font-family="Calibri,Calibri_MSFontService,sans-serif" font-weight="400" font-size="46" transform="matrix(1 0 0 1 1624.38 215)">Line</text><text font-family="Calibri,Calibri_MSFontService,sans-serif" font-weight="400" font-size="46" transform="matrix(1 0 0 1 1532.71 270)">Self</text><text font-family="Calibri,Calibri_MSFontService,sans-serif" font-weight="400" font-size="46" transform="matrix(1 0 0 1 1600.89 270)">-</text><text font-family="Calibri,Calibri_MSFontService,sans-serif" font-weight="400" font-size="46" transform="matrix(1 0 0 1 1614.64 270)">Attention</text><path d="M0-2.29167 203.922-2.29167 203.922 65.8181 199.339 65.8181 199.339 0 201.631 2.29167 0 2.29167ZM215.381 61.2348 201.631 88.7348 187.881 61.2348Z" fill="#C55A11" transform="matrix(1 0 0 -1 686.5 592.235)"/><path d="M0-2.29167 91.4664-2.29167 91.4664 100.649 86.883 100.649 86.883 0 89.1747 2.29167 0 2.29167ZM102.925 96.0656 89.1747 123.566 75.4247 96.0656Z" fill="#4472C4" transform="matrix(1.83697e-16 1 1 -1.83697e-16 191.5 503.5)"/><path d="M913.662 457.214 922.249 457.825 930.905 459.633 939.396 462.541 947.657 466.462 955.625 471.314 963.238 477.017 970.434 483.491 977.15 490.661 983.324 498.45 988.891 506.782 993.786 515.583 997.945 524.779 1001.3 534.294 1003.78 544.055 1005.32 553.986 1005.84 563.886 1006.36 573.671 1006.34 573.441 1007.84 583.149 1007.8 582.935 1010.23 592.491 1010.17 592.293 1013.46 601.619 1013.38 601.437 1017.46 610.456 1017.38 610.286 1022.18 618.923 1022.08 618.764 1027.55 626.941 1027.44 626.791 1033.49 634.432 1033.37 634.289 1039.95 641.318 1039.82 641.181 1046.86 647.522 1046.7 647.391 1054.15 652.966 1053.96 652.843 1061.74 657.576 1061.34 657.384 1072.05 661.347 1070.45 665.645 1059.54 661.605 1051.49 656.7 1043.87 650.998 1036.68 644.523 1029.96 637.353 1023.79 629.565 1018.22 621.232 1013.32 612.431 1009.17 603.235 1005.81 593.72 1003.33 583.959 1001.79 574.029 1001.27 564.128 1000.75 554.343 1000.77 554.574 999.268 544.865 999.311 545.079 996.882 535.524 996.942 535.721 993.655 526.395 993.728 526.578 989.649 517.558 989.735 517.728 984.931 509.091 985.028 509.251 979.565 501.073 979.674 501.224 973.617 493.582 973.74 493.725 967.156 486.696 967.295 486.833 960.249 480.493 960.407 480.623 952.965 475.048 953.147 475.171 945.375 470.438 945.584 470.551 937.548 466.737 937.789 466.835 929.555 464.016 929.829 464.091 921.463 462.343 921.769 462.386 913.337 461.786ZM1069.79 649.076 1093.61 668.514 1063.77 675.909Z" fill="#4472C4"/><path d="M1199.5 550.167C1199.5 533.23 1213.23 519.5 1230.17 519.5L1459.83 519.5C1476.77 519.5 1490.5 533.23 1490.5 550.167L1490.5 672.833C1490.5 689.77 1476.77 703.5 1459.83 703.5L1230.17 703.5C1213.23 703.5 1199.5 689.77 1199.5 672.833Z" stroke="#172C51" stroke-width="4.58333" stroke-miterlimit="8" fill="none" fill-rule="evenodd"/><text fill="#C55A11" font-family="Calibri,Calibri_MSFontService,sans-serif" font-weight="400" font-size="46" transform="matrix(1 0 0 1 1299.26 592)">Point</text><text font-family="Calibri,Calibri_MSFontService,sans-serif" font-weight="400" font-size="46" transform="matrix(1 0 0 1 1217.91 647)">Self</text><text font-family="Calibri,Calibri_MSFontService,sans-serif" font-weight="400" font-size="46" transform="matrix(1 0 0 1 1286.08 647)">-</text><text font-family="Calibri,Calibri_MSFontService,sans-serif" font-weight="400" font-size="46" transform="matrix(1 0 0 1 1299.83 647)">Attention</text><path d="M1102.35 557.5 1139.65 557.5C1144.54 557.5 1148.5 565.335 1148.5 575 1148.5 584.665 1144.54 592.5 1139.65 592.5L1102.35 592.5C1097.46 592.5 1093.5 584.665 1093.5 575 1093.5 565.335 1097.46 557.5 1102.35 557.5Z" stroke="#172C51" stroke-width="4.58333" stroke-miterlimit="8" fill="#ED7D31" fill-rule="evenodd"/><path d="M1103.35 650.5 1140.65 650.5C1145.54 650.5 1149.5 658.335 1149.5 668 1149.5 677.665 1145.54 685.5 1140.65 685.5L1103.35 685.5C1098.46 685.5 1094.5 677.665 1094.5 668 1094.5 658.335 1098.46 650.5 1103.35 650.5Z" stroke="#172C51" stroke-width="4.58333" stroke-miterlimit="8" fill="#ED7D31" fill-rule="evenodd"/><path d="M1148.5 573.208 1175.24 573.208 1175.24 577.792 1148.5 577.792ZM1170.66 561.75 1198.16 575.5 1170.66 589.25Z" fill="#4472C4"/><path d="M1149.5 666.208 1175.29 666.209 1175.29 670.792 1149.5 670.792ZM1170.71 654.75 1198.21 668.5 1170.71 682.25Z" fill="#4472C4"/><text font-family="Calibri,Calibri_MSFontService,sans-serif" font-weight="400" font-size="46" transform="matrix(1 0 0 1 1106.03 625)">…</text><path d="M1548.51 557.5 1586.49 557.5C1591.47 557.5 1595.5 565.335 1595.5 575 1595.5 584.665 1591.47 592.5 1586.49 592.5L1548.51 592.5C1543.53 592.5 1539.5 584.665 1539.5 575 1539.5 565.335 1543.53 557.5 1548.51 557.5Z" stroke="#172C51" stroke-width="4.58333" stroke-miterlimit="8" fill="#ED7D31" fill-rule="evenodd"/><path d="M1548.51 650.5 1586.49 650.5C1591.47 650.5 1595.5 658.335 1595.5 668 1595.5 677.665 1591.47 685.5 1586.49 685.5L1548.51 685.5C1543.53 685.5 1539.5 677.665 1539.5 668 1539.5 658.335 1543.53 650.5 1548.51 650.5Z" stroke="#172C51" stroke-width="4.58333" stroke-miterlimit="8" fill="#ED7D31" fill-rule="evenodd"/><path d="M1493.5 573.208 1516.73 573.208 1516.73 577.792 1493.5 577.792ZM1512.14 561.75 1539.64 575.5 1512.14 589.25Z" fill="#C55A11"/><path d="M1493.5 666.208 1516.73 666.209 1516.73 670.792 1493.5 670.792ZM1512.14 654.75 1539.64 668.5 1512.14 682.25Z" fill="#C55A11"/><text font-family="Calibri,Calibri_MSFontService,sans-serif" font-weight="400" font-size="46" transform="matrix(1 0 0 1 1551.12 625)">…</text><path d="M1352.5 188.208 1380.17 188.208 1380.17 192.792 1352.5 192.792ZM1375.58 176.75 1403.08 190.5 1375.58 204.25Z" fill="#C55A11"/><text font-family="Calibri,Calibri_MSFontService,sans-serif" font-weight="400" font-size="46" transform="matrix(1 0 0 1 1414.03 242)">…</text><path d="M1412.35 172.5 1449.65 172.5C1454.54 172.5 1458.5 180.335 1458.5 190 1458.5 199.665 1454.54 207.5 1449.65 207.5L1412.35 207.5C1407.46 207.5 1403.5 199.665 1403.5 190 1403.5 180.335 1407.46 172.5 1412.35 172.5Z" stroke="#172C51" stroke-width="4.58333" stroke-miterlimit="8" fill="#A9D18E" fill-rule="evenodd"/><path d="M1411.51 269.5 1449.49 269.5C1454.47 269.5 1458.5 277.111 1458.5 286.5 1458.5 295.889 1454.47 303.5 1449.49 303.5L1411.51 303.5C1406.53 303.5 1402.5 295.889 1402.5 286.5 1402.5 277.111 1406.53 269.5 1411.51 269.5Z" stroke="#172C51" stroke-width="4.58333" stroke-miterlimit="8" fill="#A9D18E" fill-rule="evenodd"/><path d="M1458.51 188.208 1489.47 188.293 1489.45 192.876 1458.49 192.792ZM1484.92 176.822 1512.38 190.648 1484.84 204.322Z" fill="#0070C0"/><path d="M1458.51 284.208 1490.07 284.294 1490.06 288.877 1458.49 288.792ZM1485.52 272.823 1512.98 286.647 1485.45 300.323Z" fill="#0070C0"/><path d="M0.302951 2.27155-3.02272 2.71509-2.48965 2.57726-5.7893 3.87012-5.38702 3.66469-8.63465 5.75026-8.34918 5.53364-11.5188 8.35528-11.3184 8.15325-14.3839 11.6544-14.2411 11.4736-17.1765 15.5976-17.072 15.4369-19.8513 20.1271-19.7727 19.9828-22.3699 25.1826-22.3092 25.0507-24.6983 30.7034-24.6504 30.5803-26.8054 36.6294-26.7507 36.4541-30.2542 49.5148-30.2052 49.2863-32.4599 63.253-32.4384 63.0767-33.0325 70.2582-33.0256 70.1337-33.2294 77.3719-33.2318 77.1828-32.8378 84.421-32.8631 84.1836-31.7145 91.3651-31.7606 91.1459-29.9077 98.2142-29.9706 98.0126-27.4637 104.911-27.5405 104.725-24.4299 111.397-24.5189 111.225-20.855 117.614-20.9557 117.454-16.7887 123.503-16.9014 123.353-12.2816 129.006-12.4077 128.864-7.38548 134.064-7.52701 133.929-2.15261 138.619-2.31243 138.492 3.3638 142.616 3.18223 142.497 9.11 145.998 8.90292 145.889 15.0319 148.711 14.7958 148.618 21.0758 150.703 20.8086 150.632 27.1891 151.925 26.8917 151.885 33.3225 152.328 33.2829 152.326 46.2064 152.993 58.8349 154.894 70.6294 157.844 76.1456 159.677 81.5447 161.805 86.9852 166.133 84.1317 169.719 78.9592 165.604 79.5456 165.943 74.5234 163.964 74.6412 164.006 69.2668 162.221 69.4331 162.269 57.8291 159.367 58.0441 159.41 45.6351 157.542 45.8582 157.564 33.0269 156.902 26.4263 156.447 19.7626 155.097 13.2307 152.927 6.87993 150.004 0.757782 146.388-5.08916 142.14-10.6143 137.318-15.7704 131.98-20.5098 126.181-24.7838 119.977-28.543 113.422-31.737 106.571-34.3144 99.4787-36.2226 92.1997-37.4078 84.7895-37.8135 77.3375-37.6053 69.9425-36.9988 62.6103-34.7113 48.4404-31.1538 35.1779-28.9458 28.98-26.5027 23.1995-23.8363 17.8612-20.9661 13.0179-17.9082 8.72183-14.6728 5.02671-11.2625 1.99078-7.67268-0.314534-3.90351-1.79136-0.302951-2.27155ZM91.9704 154.928 101.85 184.043 72.6299 174.478Z" fill="#4472C4" transform="matrix(-1 0 0 1 1918.35 190.5)"/><path d="M1811.5 188.208 1839.17 188.208 1839.17 192.792 1811.5 192.792ZM1834.58 176.75 1862.08 190.5 1834.58 204.25Z" fill="#C55A11"/><text font-family="Calibri,Calibri_MSFontService,sans-serif" font-weight="400" font-size="46" transform="matrix(1 0 0 1 1873.37 242)">…</text><path d="M1871.51 172.5 1909.49 172.5C1914.47 172.5 1918.5 180.335 1918.5 190 1918.5 199.665 1914.47 207.5 1909.49 207.5L1871.51 207.5C1866.53 207.5 1862.5 199.665 1862.5 190 1862.5 180.335 1866.53 172.5 1871.51 172.5Z" stroke="#172C51" stroke-width="4.58333" stroke-miterlimit="8" fill="#A9D18E" fill-rule="evenodd"/><path d="M1871.51 269.5 1909.49 269.5C1914.47 269.5 1918.5 277.335 1918.5 287 1918.5 296.665 1914.47 304.5 1909.49 304.5L1871.51 304.5C1866.53 304.5 1862.5 296.665 1862.5 287 1862.5 277.335 1866.53 269.5 1871.51 269.5Z" stroke="#172C51" stroke-width="4.58333" stroke-miterlimit="8" fill="#A9D18E" fill-rule="evenodd"/><path d="M1811.5 284.208 1839.17 284.208 1839.17 288.792 1811.5 288.792ZM1834.58 272.75 1862.08 286.5 1834.58 300.25Z" fill="#C55A11"/><path d="M1974.6 464.211 1980.16 464.458 1985.76 465.191 1991.27 466.371 1996.68 467.978 2006.8 472.27 2015.88 477.846 2019.98 481.085 2023.67 484.536 2026.92 488.199 2029.7 492.051 2031.97 496.068 2033.65 500.225 2034.71 504.494 2035.06 508.639 2035.4 512.603 2035.34 512.244 2036.31 516.176 2036.21 515.865 2037.78 519.736 2037.66 519.474 2039.78 523.251 2039.64 523.033 2042.28 526.687 2042.14 526.507 2045.25 530.005 2045.1 529.855 2048.64 533.167 2048.49 533.041 2052.41 536.136 2052.19 535.982 2061.01 541.397 2060.51 541.169 2069.38 544.025 2067.98 548.387 2058.85 545.447 2049.68 539.817 2045.57 536.578 2041.89 533.128 2038.64 529.465 2035.85 525.613 2033.59 521.596 2031.9 517.438 2030.84 513.169 2030.49 509.024 2030.16 505.061 2030.22 505.42 2029.24 501.487 2029.35 501.798 2027.77 497.928 2027.9 498.19 2025.77 494.412 2025.91 494.63 2023.27 490.977 2023.42 491.157 2020.31 487.659 2020.45 487.809 2016.92 484.496 2017.07 484.622 2013.15 481.527 2013.37 481.682 2004.55 476.266 2004.85 476.423 1995 472.248 1995.25 472.335 1990.05 470.79 1990.22 470.834 1984.89 469.692 1985.07 469.723 1979.66 469.015 1979.85 469.032 1974.4 468.789ZM2067.18 531.79 2091.06 551.164 2061.23 558.639Z" fill="#C55A11"/><text font-family="Calibri,Calibri_MSFontService,sans-serif" font-weight="400" font-size="46" transform="matrix(1 0 0 1 2630.41 300)">3D</text><text font-family="Calibri,Calibri_MSFontService,sans-serif" font-weight="400" font-size="46" transform="matrix(1 0 0 1 2608.94 355)">Lines</text><path d="M2556 255.5 2575 255.5C2577.48 255.5 2579.5 263.335 2579.5 273 2579.5 282.665 2577.48 290.5 2575 290.5L2556 290.5C2553.52 290.5 2551.5 282.665 2551.5 273 2551.5 263.335 2553.52 255.5 2556 255.5Z" stroke="#172C51" stroke-width="4.58333" stroke-miterlimit="8" fill="#595959" fill-rule="evenodd"/><text font-family="Calibri,Calibri_MSFontService,sans-serif" font-weight="400" font-size="46" transform="matrix(1 0 0 1 2549.06 325)">…</text><path d="M2556.84 350.5 2575.16 350.5C2577.56 350.5 2579.5 358.335 2579.5 368 2579.5 377.665 2577.56 385.5 2575.16 385.5L2556.84 385.5C2554.44 385.5 2552.5 377.665 2552.5 368 2552.5 358.335 2554.44 350.5 2556.84 350.5Z" stroke="#172C51" stroke-width="4.58333" stroke-miterlimit="8" fill="#595959" fill-rule="evenodd"/><path d="M0.160234-2.28606 7.64023-1.76177 15.0287-0.250751 21.9447 2.09943 28.1762 5.16494 33.5121 8.83975 37.6767 12.9918 39.3206 15.3312 40.5429 17.7425 41.3238 20.2671 41.5727 22.6314 41.7981 24.7728 41.7084 24.3356 42.3655 26.4603 42.2202 26.1013 43.2803 28.1924 43.1112 27.911 44.5454 29.9519 44.2884 29.6466 48.1641 33.5106 47.8459 33.2461 52.8727 36.7081 52.1917 36.3889 57.0328 37.7467 55.795 42.1598 50.587 40.699 45.0751 36.903 40.9105 32.7509 39.2666 30.4115 38.0443 28.0002 37.2634 25.4757 37.0145 23.1113 36.7891 20.9699 36.8788 21.4071 36.2217 19.2825 36.367 19.6415 35.3069 17.5504 35.476 17.8318 34.0418 15.7909 34.2988 16.0962 30.4232 12.2322 30.7413 12.4967 25.7145 9.03469 26.0028 9.20364 20.055 6.2777 20.3292 6.3912 13.6908 4.13532 13.969 4.21071 6.87001 2.75891 7.16894 2.79977-0.160234 2.28606ZM55.4529 25.4914 78.5872 45.7427 48.5056 52.0994Z" fill="#C55A11" transform="matrix(1 0 0 -1 2473.5 319.243)"/><path d="M2202.5 243.5 2397.5 243.5 2473.5 319.5 2397.5 395.5 2202.5 395.5Z" stroke="#172C51" stroke-width="4.58333" stroke-miterlimit="8" fill="#4472C4" fill-rule="evenodd"/><text fill="#FFFFFF" font-family="Calibri,Calibri_MSFontService,sans-serif" font-weight="400" font-size="46" transform="matrix(1 0 0 1 2246.44 307)">Shared</text><text fill="#FFFFFF" font-family="Calibri,Calibri_MSFontService,sans-serif" font-weight="400" font-size="46" transform="matrix(1 0 0 1 2376.49 307)">-</text><text fill="#FFFFFF" font-family="Calibri,Calibri_MSFontService,sans-serif" font-weight="400" font-size="46" transform="matrix(1 0 0 1 2277.38 362)">MLP</text><path d="M2473.67 317.215 2481.2 317.776 2488.64 319.395 2495.6 321.912 2501.87 325.194 2507.23 329.122 2511.4 333.552 2513.04 336.033 2514.25 338.581 2515.02 341.235 2515.27 343.736 2515.5 346.026 2515.42 345.612 2516.08 347.884 2515.95 347.538 2517.01 349.775 2516.86 349.498 2518.3 351.68 2518.05 351.371 2521.95 355.504 2521.64 355.228 2526.69 358.93 2526.01 358.588 2531.06 360.141 2529.72 364.522 2524.29 362.856 2518.76 358.8 2514.58 354.371 2512.94 351.89 2511.73 349.342 2510.96 346.688 2510.71 344.187 2510.48 341.897 2510.56 342.311 2509.9 340.038 2510.04 340.384 2508.97 338.148 2509.13 338.425 2507.69 336.242 2507.93 336.551 2504.03 332.419 2504.35 332.695 2499.3 328.992 2499.59 329.174 2493.61 326.045 2493.89 326.17 2487.22 323.757 2487.51 323.841 2480.38 322.289 2480.7 322.335 2473.33 321.785ZM2529.63 347.858 2552.48 368.423 2522.32 374.369Z" fill="#C55A11"/><text font-family="Calibri,Calibri_MSFontService,sans-serif" font-weight="400" font-size="46" transform="matrix(1 0 0 1 2102.58 325)">…</text><path d="M2100.51 255.5 2138.49 255.5C2143.47 255.5 2147.5 263.335 2147.5 273 2147.5 282.665 2143.47 290.5 2138.49 290.5L2100.51 290.5C2095.53 290.5 2091.5 282.665 2091.5 273 2091.5 263.335 2095.53 255.5 2100.51 255.5Z" stroke="#172C51" stroke-width="4.58333" stroke-miterlimit="8" fill="#A9D18E" fill-rule="evenodd"/><path d="M2100.51 352.5 2138.49 352.5C2143.47 352.5 2147.5 360.335 2147.5 370 2147.5 379.665 2143.47 387.5 2138.49 387.5L2100.51 387.5C2095.53 387.5 2091.5 379.665 2091.5 370 2091.5 360.335 2095.53 352.5 2100.51 352.5Z" stroke="#172C51" stroke-width="4.58333" stroke-miterlimit="8" fill="#A9D18E" fill-rule="evenodd"/><path d="M2147.51 271.208 2178.47 271.293 2178.45 275.877 2147.49 275.792ZM2173.92 259.822 2201.38 273.648 2173.84 287.322Z" fill="#0070C0"/><path d="M2147.51 367.208 2179.07 367.294 2179.06 371.877 2147.49 371.792ZM2174.52 355.823 2201.99 369.648 2174.45 383.323Z" fill="#0070C0"/><path d="M0.229034-2.28019 5.9441-1.70614 11.7885 0.0185278 17.4747 2.76869 22.9656 6.45018 28.2305 10.9789 33.239 16.2783 37.9583 22.2763 42.3531 28.9029 46.3859 36.0892 50.0175 43.7668 53.2073 51.8673 55.914 60.3222 58.0952 69.0633 59.7078 78.022 60.708 87.1296 61.0482 96.2299 61.3853 105.248 61.3732 105.083 62.3559 114.03 62.3333 113.875 63.9185 122.681 63.8866 122.532 66.0312 131.127 65.9902 130.983 68.6513 139.295 68.601 139.154 71.7355 147.114 71.6748 146.974 75.2396 154.51 75.1665 154.368 79.1186 161.411 79.03 161.266 83.3264 167.744 83.2175 167.594 87.8152 173.437 87.6797 173.28 92.5356 178.418 91.993 177.994 97.7424 181.226 95.4965 185.222 89.4436 181.819 84.2774 176.353 79.5581 170.355 75.1633 163.728 71.1305 156.542 67.4989 148.864 64.309 140.764 61.6023 132.309 59.4212 123.568 57.8085 114.609 56.8083 105.501 56.4681 96.4011 56.131 87.3833 56.1431 87.5479 55.1604 78.6006 55.183 78.7564 53.5978 69.9502 53.6298 70.0991 51.4851 61.5045 51.5261 61.6484 48.865 53.336 48.9153 53.477 45.7809 45.5173 45.8416 45.6575 42.2768 38.1211 42.3499 38.2627 38.3978 31.2201 38.4864 31.3652 34.19 24.8869 34.2989 25.0374 29.7012 19.1941 29.8367 19.3511 24.9808 14.2132 25.1519 14.3764 20.0809 10.0145 20.2991 10.1805 15.0559 6.66512 15.3343 6.82473 9.962 4.22637 10.3112 4.3613 4.85281 2.75055 5.27239 2.83278-0.229034 2.28019ZM98.0844 168.804 117.516 192.631 86.7958 193.881Z" fill="#C55A11" transform="matrix(1 0 0 -1 1974.5 466.131)"/><path d="M0.115079-2.28878 5.71738-2.00709 11.3788-1.17082 16.9392 0.175369 22.357 1.99369 27.5912 4.24738 32.6411 6.92202 41.7472 13.2369 45.87 16.9144 49.5671 20.8269 52.8295 24.9738 55.612 29.3247 57.8675 33.8492 59.5455 38.5157 60.5931 43.29 60.9417 47.9581 61.2782 52.4643 61.2313 52.1439 62.2123 56.6148 62.1303 56.3305 63.7127 60.7309 63.6072 60.484 65.7481 64.7787 65.6278 64.5664 68.2842 68.7201 68.1547 68.5378 71.2837 72.5153 71.1483 72.3583 74.7069 76.1242 74.5667 75.988 78.512 79.5072 78.2924 79.3342 87.1711 85.4913 86.6945 85.2381 95.8533 88.7935 94.1947 93.0662 84.7825 89.4124 75.5655 83.0207 71.4428 79.3432 67.7457 75.4307 64.4833 71.2837 61.7007 66.9328 59.4453 62.4084 57.7672 57.7419 56.7197 52.9675 56.3711 48.2995 56.0345 43.7933 56.0814 44.1137 55.1005 39.6428 55.1824 39.9271 53.6 35.5267 53.7055 35.7736 51.5646 31.4789 51.685 31.6912 49.0285 27.5375 49.158 27.7197 46.029 23.7423 46.1645 23.8993 42.6059 20.1334 42.7461 20.2696 38.8008 16.7504 39.0203 16.9234 30.1417 10.7663 30.375 10.9083 25.5275 8.34088 25.6939 8.42058 20.6316 6.24092 20.8087 6.30864 15.5746 4.55199 15.7645 4.60673 10.4015 3.30834 10.6059 3.34808 5.15699 2.5432 5.3768 2.5649-0.115079 2.28878ZM93.7629 76.4911 117.313 96.2576 87.3696 103.238Z" fill="#C55A11" transform="matrix(1 0 0 -1 1974.5 465.758)"/><path d="M1974.71 464.218 1980.41 464.746 1986.23 466.331 1991.91 468.862 1997.39 472.256 2002.66 476.436 2007.67 481.33 2012.4 486.872 2016.8 492.995 2020.85 499.638 2024.48 506.735 2027.68 514.224 2030.39 522.042 2032.58 530.125 2034.2 538.412 2035.2 546.838 2035.54 555.245 2035.88 563.562 2035.87 563.384 2036.85 571.637 2036.82 571.469 2038.41 579.591 2038.37 579.432 2040.51 587.359 2040.47 587.206 2043.13 594.873 2043.07 594.725 2046.2 602.067 2046.14 601.921 2049.7 608.872 2049.62 608.727 2053.57 615.222 2053.47 615.076 2057.77 621.051 2057.65 620.902 2062.25 626.291 2062.11 626.138 2066.96 630.877 2066.4 630.473 2071.91 633.266 2069.84 637.354 2064.01 634.403 2058.83 629.345 2054.1 623.804 2049.7 617.68 2045.66 611.037 2042.02 603.94 2038.82 596.451 2036.11 588.633 2033.92 580.55 2032.31 572.263 2031.3 563.837 2030.96 555.43 2030.63 547.113 2030.64 547.291 2029.66 539.038 2029.68 539.206 2028.1 531.084 2028.14 531.243 2025.99 523.316 2026.04 523.469 2023.38 515.802 2023.44 515.95 2020.3 508.609 2020.37 508.754 2016.81 501.803 2016.89 501.949 2012.93 495.453 2013.03 495.599 2008.74 489.624 2008.85 489.774 2004.26 484.384 2004.4 484.537 1999.54 479.798 1999.72 479.953 1994.65 475.93 1994.87 476.083 1989.63 472.841 1989.9 472.985 1984.53 470.588 1984.86 470.707 1979.4 469.221 1979.79 469.292 1974.29 468.782ZM2071.97 620.857 2092.01 644.175 2061.33 646.216Z" fill="#C55A11"/><path d="M2099.51 533.5 2137.49 533.5C2142.47 533.5 2146.5 541.335 2146.5 551 2146.5 560.665 2142.47 568.5 2137.49 568.5L2099.51 568.5C2094.53 568.5 2090.5 560.665 2090.5 551 2090.5 541.335 2094.53 533.5 2099.51 533.5Z" stroke="#172C51" stroke-width="4.58333" stroke-miterlimit="8" fill="#ED7D31" fill-rule="evenodd"/><path d="M2100.51 626.5 2138.49 626.5C2143.47 626.5 2147.5 634.335 2147.5 644 2147.5 653.665 2143.47 661.5 2138.49 661.5L2100.51 661.5C2095.53 661.5 2091.5 653.665 2091.5 644 2091.5 634.335 2095.53 626.5 2100.51 626.5Z" stroke="#172C51" stroke-width="4.58333" stroke-miterlimit="8" fill="#ED7D31" fill-rule="evenodd"/><path d="M2146.5 548.208 2173.24 548.208 2173.24 552.792 2146.5 552.792ZM2168.66 536.75 2196.16 550.5 2168.66 564.25Z" fill="#4472C4"/><path d="M2147.5 641.208 2170.46 641.208 2170.46 645.792 2147.5 645.792ZM2165.87 629.75 2193.37 643.5 2165.87 657.25Z" fill="#4472C4"/><text font-family="Calibri,Calibri_MSFontService,sans-serif" font-weight="400" font-size="46" transform="matrix(1 0 0 1 2103.01 604)">…</text><text font-family="Calibri,Calibri_MSFontService,sans-serif" font-weight="400" font-size="46" transform="matrix(1 0 0 1 2630.38 583)">3D </text><text font-family="Calibri,Calibri_MSFontService,sans-serif" font-weight="400" font-size="46" transform="matrix(1 0 0 1 2598.6 638)">Points</text><path d="M2198.5 522.5 2392.5 522.5 2468.5 598.5 2392.5 674.5 2198.5 674.5Z" stroke="#172C51" stroke-width="4.58333" stroke-miterlimit="8" fill="#4472C4" fill-rule="evenodd"/><text fill="#FFFFFF" font-family="Calibri,Calibri_MSFontService,sans-serif" font-weight="400" font-size="46" transform="matrix(1 0 0 1 2241.91 586)">Shared</text><text fill="#FFFFFF" font-family="Calibri,Calibri_MSFontService,sans-serif" font-weight="400" font-size="46" transform="matrix(1 0 0 1 2371.96 586)">-</text><text fill="#FFFFFF" font-family="Calibri,Calibri_MSFontService,sans-serif" font-weight="400" font-size="46" transform="matrix(1 0 0 1 2272.84 641)">MLP</text><path d="M2553 535.5 2572 535.5C2574.48 535.5 2576.5 543.335 2576.5 553 2576.5 562.665 2574.48 570.5 2572 570.5L2553 570.5C2550.52 570.5 2548.5 562.665 2548.5 553 2548.5 543.335 2550.52 535.5 2553 535.5Z" stroke="#172C51" stroke-width="4.58333" stroke-miterlimit="8" fill="#595959" fill-rule="evenodd"/><text font-family="Calibri,Calibri_MSFontService,sans-serif" font-weight="400" font-size="46" transform="matrix(1 0 0 1 2547.51 604)">…</text><path d="M2553 628.5 2572 628.5C2574.48 628.5 2576.5 636.335 2576.5 646 2576.5 655.665 2574.48 663.5 2572 663.5L2553 663.5C2550.52 663.5 2548.5 655.665 2548.5 646 2548.5 636.335 2550.52 628.5 2553 628.5Z" stroke="#172C51" stroke-width="4.58333" stroke-miterlimit="8" fill="#595959" fill-rule="evenodd"/><path d="M0.160234-2.28606 7.64023-1.76177 15.0287-0.250751 21.9447 2.09943 28.1762 5.16494 33.5121 8.83975 37.6767 12.9918 39.3206 15.3312 40.5429 17.7425 41.3238 20.2671 41.5727 22.6314 41.7981 24.7728 41.7084 24.3356 42.3655 26.4603 42.2202 26.1013 43.2803 28.1924 43.1112 27.911 44.5454 29.9519 44.2884 29.6466 48.1641 33.5106 47.8459 33.2461 52.8727 36.7081 52.1917 36.3889 57.0328 37.7467 55.795 42.1598 50.587 40.699 45.0751 36.903 40.9105 32.7509 39.2666 30.4115 38.0443 28.0002 37.2634 25.4757 37.0145 23.1113 36.7891 20.9699 36.8788 21.4071 36.2217 19.2825 36.367 19.6415 35.3069 17.5504 35.476 17.8318 34.0418 15.7909 34.2988 16.0962 30.4232 12.2322 30.7413 12.4967 25.7145 9.03469 26.0028 9.20364 20.055 6.2777 20.3292 6.3912 13.6908 4.13532 13.969 4.21071 6.87001 2.75891 7.16894 2.79977-0.160234 2.28606ZM55.4529 25.4914 78.5872 45.7427 48.5056 52.0994Z" fill="#C55A11" transform="matrix(1 0 0 -1 2469.5 598.243)"/><path d="M2468.66 596.214 2476.3 596.749 2483.83 598.291 2490.89 600.69 2497.25 603.818 2502.69 607.566 2506.94 611.801 2508.61 614.184 2509.86 616.64 2510.65 619.21 2510.9 621.62 2511.13 623.807 2511.04 623.37 2511.72 625.54 2511.57 625.181 2512.65 627.317 2512.48 627.035 2513.95 629.12 2513.69 628.814 2517.65 632.761 2517.33 632.496 2522.46 636.032 2521.82 635.723 2527.21 637.329 2525.9 641.721 2520.16 640.012 2514.56 636.153 2510.31 631.918 2508.64 629.535 2507.39 627.079 2506.6 624.51 2506.35 622.1 2506.12 619.912 2506.21 620.35 2505.53 618.18 2505.68 618.539 2504.6 616.403 2504.77 616.684 2503.3 614.6 2503.56 614.905 2499.6 610.958 2499.92 611.223 2494.79 607.687 2495.07 607.856 2489 604.868 2489.27 604.981 2482.5 602.677 2482.77 602.753 2475.52 601.27 2475.82 601.311 2468.34 600.786ZM2525.53 625.067 2548.75 645.219 2518.7 651.705Z" fill="#C55A11"/><path d="M1049.5 818.208 1112.1 818.209 1112.1 822.792 1049.5 822.792ZM1107.52 806.75 1135.02 820.5 1107.52 834.25Z" fill="#C55A11"/><text font-family="Calibri,Calibri_MSFontService,sans-serif" font-weight="400" font-size="46" transform="matrix(1 0 0 1 1149.15 832)">output</text><path d="M768.5 819.208 831.104 819.209 831.104 823.792 768.5 823.792ZM826.521 807.75 854.021 821.5 826.521 835.25Z" fill="#0070C0"/><text font-family="Calibri,Calibri_MSFontService,sans-serif" font-weight="400" font-size="46" transform="matrix(1 0 0 1 869.139 832)">input</text><path d="M1775.51 800.5 1813.49 800.5C1818.47 800.5 1822.5 808.335 1822.5 818 1822.5 827.665 1818.47 835.5 1813.49 835.5L1775.51 835.5C1770.53 835.5 1766.5 827.665 1766.5 818 1766.5 808.335 1770.53 800.5 1775.51 800.5Z" stroke="#172C51" stroke-width="4.58333" stroke-miterlimit="8" fill="#A9D18E" fill-rule="evenodd"/><text font-family="Calibri,Calibri_MSFontService,sans-serif" font-weight="400" font-size="46" transform="matrix(1 0 0 1 1850.37 832)">line feature</text><path d="M1370.51 804.5 1408.49 804.5C1413.47 804.5 1417.5 812.335 1417.5 822 1417.5 831.665 1413.47 839.5 1408.49 839.5L1370.51 839.5C1365.53 839.5 1361.5 831.665 1361.5 822 1361.5 812.335 1365.53 804.5 1370.51 804.5Z" stroke="#172C51" stroke-width="4.58333" stroke-miterlimit="8" fill="#ED7D31" fill-rule="evenodd"/><text font-family="Calibri,Calibri_MSFontService,sans-serif" font-weight="400" font-size="46" transform="matrix(1 0 0 1 1441.13 832)">point feature</text><path d="M824.5 388C824.5 383.306 828.082 379.5 832.5 379.5 836.918 379.5 840.5 383.306 840.5 388 840.5 392.694 836.918 396.5 832.5 396.5 828.082 396.5 824.5 392.694 824.5 388Z" stroke="#172C51" stroke-width="4.58333" stroke-miterlimit="8" fill="#ED7D31" fill-rule="evenodd"/><path d="M1658.5 405.001C1658.5 388.155 1672.16 374.5 1689 374.5L1944 374.5C1960.84 374.5 1974.5 388.155 1974.5 405.001L1974.5 526.999C1974.5 543.844 1960.84 557.5 1944 557.5L1689 557.5C1672.16 557.5 1658.5 543.844 1658.5 526.999Z" stroke="#172C51" stroke-width="4.58333" stroke-miterlimit="8" fill="none" fill-rule="evenodd"/><text fill="#C55A11" font-family="Calibri,Calibri_MSFontService,sans-serif" font-weight="400" font-size="46" transform="matrix(1 0 0 1 1723.77 448)">Point</text><text font-family="Calibri,Calibri_MSFontService,sans-serif" font-weight="400" font-size="46" transform="matrix(1 0 0 1 1821.16 448)">-</text><text fill="#548235" font-family="Calibri,Calibri_MSFontService,sans-serif" font-weight="400" font-size="46" transform="matrix(1 0 0 1 1834.91 448)">Line</text><text font-family="Calibri,Calibri_MSFontService,sans-serif" font-weight="400" font-size="46" transform="matrix(1 0 0 1 1671.63 503)">Cross</text><text font-family="Calibri,Calibri_MSFontService,sans-serif" font-weight="400" font-size="46" transform="matrix(1 0 0 1 1771.89 503)">-</text><text font-family="Calibri,Calibri_MSFontService,sans-serif" font-weight="400" font-size="46" transform="matrix(1 0 0 1 1785.64 503)">Attention</text><text font-family="Calibri,Calibri_MSFontService,sans-serif" font-weight="400" font-size="37" transform="matrix(1 0 0 1 1766.25 178)">xL</text><text font-family="Calibri,Calibri_MSFontService,sans-serif" font-weight="400" font-size="37" transform="matrix(1 0 0 1 1444.48 550)">xL</text><text font-family="Calibri,Calibri_MSFontService,sans-serif" font-weight="400" font-size="37" transform="matrix(1 0 0 1 1911.3 408)">xM</text><path d="M25 123C25 105.603 27.3506 91.4998 30.2502 91.4998L512.75 91.5008C515.649 91.5008 518 77.3976 518 60.0003 518 77.3976 520.351 91.5008 523.25 91.5008L1005.75 91.5008C1008.65 91.5008 1011 105.604 1011 123.001" stroke="#000000" stroke-width="2.29167" stroke-miterlimit="8" stroke-dasharray="2.29167 2.29167" fill="none" fill-rule="evenodd"/><text fill="#7F7F7F" font-family="Calibri,Calibri_MSFontService,sans-serif" font-style="italic" font-weight="400" font-size="46" transform="matrix(1 0 0 1 428.909 39)">Front</text><text fill="#7F7F7F" font-family="Calibri,Calibri_MSFontService,sans-serif" font-style="italic" font-weight="400" font-size="46" transform="matrix(1 0 0 1 528.023 39)">-</text><text fill="#7F7F7F" font-family="Calibri,Calibri_MSFontService,sans-serif" font-style="italic" font-weight="400" font-size="46" transform="matrix(1 0 0 1 541.773 39)">End</text><path d="M1030 123C1030 105.603 1032.35 91.4997 1035.25 91.4997L1589.75 91.5009C1592.65 91.5009 1595 77.3976 1595 60.0003 1595 77.3976 1597.35 91.5009 1600.25 91.5009L2154.75 91.5009C2157.65 91.5009 2160 105.604 2160 123.001" stroke="#000000" stroke-width="2.29167" stroke-miterlimit="8" stroke-dasharray="2.29167 2.29167" fill="none" fill-rule="evenodd"/><text fill="#7F7F7F" font-family="Calibri,Calibri_MSFontService,sans-serif" font-style="italic" font-weight="400" font-size="46" transform="matrix(1 0 0 1 1371.19 41)">Attentional Refinement</text><path d="M2178 123C2178 105.603 2180.35 91.4998 2183.25 91.4998L2426.25 91.5004C2429.15 91.5004 2431.5 77.3973 2431.5 60.0002 2431.5 77.3973 2433.85 91.5004 2436.75 91.5004L2679.75 91.5004C2682.65 91.5004 2685 105.604 2685 123.001" stroke="#000000" stroke-width="2.29167" stroke-miterlimit="8" stroke-dasharray="2.29167 2.29167" fill="none" fill-rule="evenodd"/><text fill="#7F7F7F" font-family="Calibri,Calibri_MSFontService,sans-serif" font-style="italic" font-weight="400" font-size="46" transform="matrix(1 0 0 1 2251.07 37)">Mapping Regressors</text></g></svg>